<svg xmlns="http://www.w3.org/2000/svg" version="1.1" xmlns:xlink="http://www.w3.org/1999/xlink" xmlns:svgjs="http://svgjs.dev/svgjs" width="1000" height="1000" preserveAspectRatio="none" viewBox="0 0 1000 1000"><g mask="url(&quot;#SvgjsMask1027&quot;)" fill="none"><rect width="1000" height="1000" x="0" y="0" fill="rgba(232, 243, 255, 1)"></rect><path d="M1086.04 587.89C1003.05 585.53 932.2 462.89 778.36 462.89 624.52 462.89 673.17 625.59 470.68 587.89 268.19 550.19 308.32 29.51 163-84.91" stroke="rgba(151, 51, 194, 0.58)" stroke-width="2"></path><path d="M1032.03 591.42C905.78 614.58 892.14 968.98 647.33 931.42 402.52 893.86 452.56 144.16 262.63-32.67" stroke="rgba(151, 51, 194, 0.58)" stroke-width="2"></path><path d="M1004.33 688.11C870.79 653.65 854.59 391.71 624.42 288.11 394.26 184.51 525.48-69.73 434.47-145.31" stroke="rgba(151, 51, 194, 0.58)" stroke-width="2"></path><path d="M1024.13 693.57C917.32 677.63 890.43 513.85 686.95 423.57 483.47 333.29 603.85 49.36 518.36-39.27" stroke="rgba(151, 51, 194, 0.58)" stroke-width="2"></path><path d="M1114.07 282.91C981.59 305.74 926.24 639.26 705.83 632.91 485.43 626.56 471.99 45.31 297.6-50.65" stroke="rgba(151, 51, 194, 0.58)" stroke-width="2"></path></g><defs><mask id="SvgjsMask1027"><rect width="1000" height="1000" fill="#ffffff"></rect></mask></defs></svg>